<svg xmlns="http://www.w3.org/2000/svg" viewBox="0 0 502.664 502.664">
    <g>
        <rect id="svg_23" height="502.664" width="503" y="0" x="0" fill="#4C7E3A"/>
        <path stroke="null" id="svg_4" fill="#ffffff" d="m154.08201,233.30501c44.48411,0 80.3756,-35.94368 80.3756,-80.25434c0,-44.36285 -35.87462,-80.28967 -80.3756,-80.28967c-44.27612,0 -80.15075,35.92682 -80.15075,80.28967c0,44.29299 35.87543,80.25434 80.15075,80.25434z"/>
        <path stroke="null" id="svg_5" fill="#ffffff" d="m218.48737,246.36581l-128.67099,0c-22.96962,0 -41.81638,21.11618 -41.81638,46.97839l0,129.20742c0,1.42059 0.67536,2.71993 0.81429,4.15739l210.7097,0c0.08673,-1.43746 0.76209,-2.73679 0.76209,-4.15739l0,-129.20742c0,-25.8622 -18.7777,-46.97839 -41.79872,-46.97839z"/>
        <path stroke="null" id="svg_6" fill="#ffffff" d="m451.66399,158.52426c-0.08673,-47.11731 -43.13258,-85.07023 -95.82788,-84.94897c-52.93701,0.08673 -95.63675,38.35203 -95.56769,85.34728c0.08673,37.12176 26.88449,68.52741 64.09297,80.08168l0.50271,162.65764l31.05874,22.34565l32.28901,-22.53678l-0.0522,-21.58356l-14.91423,0l-0.06906,-21.15071l14.94957,0l-0.13893,-23.3856l-14.84517,0l-0.06906,-21.11618l14.91423,0l-0.06906,-21.13305l-14.89737,0l-0.0522,-21.13305l14.96643,-0.01767l-0.24252,-33.0511c37.26069,-11.6924 63.97171,-43.21931 63.97171,-80.3756zm-95.77568,-48.29458c11.86586,0 21.60122,9.7177 21.60122,21.56669c0.08673,12.00478 -9.64864,21.68795 -21.54903,21.68795c-11.96945,0 -21.63575,-9.54504 -21.63575,-21.58356c-0.06906,-11.90119 9.61411,-21.63656 21.58356,-21.67109z"/>
    </g>
</svg>
